<svg width="22" height="22" viewBox="0 0 22 22" fill="none" xmlns="http://www.w3.org/2000/svg">
<mask id="mask0_4945_2327" style="mask-type:alpha" maskUnits="userSpaceOnUse" x="0" y="0" width="22" height="22">
<rect width="21.4132" height="21.4132" fill="#D9D9D9"/>
</mask>
<g mask="url(#mask0_4945_2327)">
<path d="M10.7067 11.8886L6.19768 16.3976C6.03381 16.5615 5.83663 16.6434 5.60614 16.6434C5.37566 16.6434 5.17848 16.5615 5.0146 16.3976C4.85073 16.2338 4.7688 16.0366 4.7688 15.8061C4.7688 15.5756 4.85073 15.3784 5.0146 15.2145L9.52365 10.7055L5.0146 6.19646C4.85073 6.03259 4.7688 5.83541 4.7688 5.60492C4.7688 5.37444 4.85073 5.17725 5.0146 5.01338C5.17848 4.84951 5.37566 4.76758 5.60614 4.76758C5.83663 4.76758 6.03381 4.84951 6.19768 5.01338L10.7067 9.52243L15.2158 5.01338C15.3796 4.84951 15.5768 4.76758 15.8073 4.76758C16.0378 4.76758 16.235 4.84951 16.3988 5.01338C16.5627 5.17725 16.6447 5.37444 16.6447 5.60492C16.6447 5.83541 16.5627 6.03259 16.3988 6.19646L11.8898 10.7055L16.3988 15.2145C16.5627 15.3784 16.6447 15.5756 16.6447 15.8061C16.6447 16.0366 16.5627 16.2338 16.3988 16.3976C16.235 16.5615 16.0378 16.6434 15.8073 16.6434C15.5768 16.6434 15.3796 16.5615 15.2158 16.3976L10.7067 11.8886Z" fill="#C84C0E"/>
</g>
</svg>
